<?xml version="1.0" encoding="UTF-8" standalone="no"?>
<!-- Created with Inkscape (http://www.inkscape.org/) -->

<svg
   width="500mm"
   height="500mm"
   viewBox="0 0 500 500"
   version="1.1"
   id="svg1"
   inkscape:export-filename="Logo.svg"
   inkscape:export-xdpi="50.799999"
   inkscape:export-ydpi="50.799999"
   xmlns:inkscape="http://www.inkscape.org/namespaces/inkscape"
   xmlns:sodipodi="http://sodipodi.sourceforge.net/DTD/sodipodi-0.dtd"
   xmlns="http://www.w3.org/2000/svg"
   xmlns:svg="http://www.w3.org/2000/svg">
  <sodipodi:namedview
     id="namedview1"
     pagecolor="#ffffff"
     bordercolor="#000000"
     borderopacity="0.25"
     inkscape:showpageshadow="2"
     inkscape:pageopacity="0.0"
     inkscape:pagecheckerboard="0"
     inkscape:deskcolor="#d1d1d1"
     inkscape:document-units="mm">
    <inkscape:page
       x="0"
       y="0"
       width="500"
       height="500"
       id="page2"
       margin="0"
       bleed="0" />
  </sodipodi:namedview>
  <defs
     id="defs1" />
  <g
     inkscape:label="Layer 1"
     inkscape:groupmode="layer"
     id="layer1">
    <path
       id="path5"
       style="fill:#5cd89a;stroke:#37ce83;stroke-width:0;stroke-linecap:round;stroke-linejoin:bevel;stroke-opacity:0.756863;paint-order:fill markers stroke"
       d="m 180.57198,309.61984 c -1.08364,8.17436 6.7966,19.24996 -5.04866,19.24996 -6.98851,0 -5.79818,7.65591 -12.23722,1.09694 -4.41456,-4.49678 4.81309,-14.21255 3.65473,-23.86018 -0.3062,-2.55026 16.2698,-16.39117 13.63115,3.51328 z"
       sodipodi:nodetypes="sssss" />
    <g
       id="g14"
       transform="translate(0,-28.722549)">
      <g
         id="g15"
         transform="matrix(1.1707183,0,0,1.1707183,-42.679564,-49.870683)">
        <g
           id="g13"
           transform="matrix(0.91042552,0,0,0.91042552,30.472777,42.298115)">
          <path
             id="path2"
             style="fill:#ea7cd7;fill-opacity:1;stroke:#37ce83;stroke-width:0;stroke-linecap:round;stroke-linejoin:bevel;stroke-opacity:0.756863;paint-order:fill markers stroke"
             d="m 383.64563,282.87157 c 16.36027,23.58467 3.65896,85.23639 -21.87107,94.00301 -61.0776,20.97311 -78.21629,62.30747 -136.88902,62.30747 -46.90117,0 -120.80424,-20.02391 -118.11522,-51.86242 3.13274,-37.09225 -40.644861,-64.29768 -40.644861,-104.44806 0,-44.69039 -0.11183,-100.63137 49.588561,-113.48839 37.90937,-9.80679 66.88149,-42.8221 109.17152,-42.8221 39.3501,0 66.6544,35.57487 103.09486,37.43745 65.27346,3.33632 44.71625,103.0892 55.66523,118.87304 z"
             sodipodi:nodetypes="sssssssss" />
          <path
             id="path1"
             style="fill:#5cd89a;fill-opacity:1;stroke:#37ce83;stroke-width:0;stroke-linecap:round;stroke-linejoin:bevel;stroke-opacity:0.756863;paint-order:fill markers stroke"
             d="M 412.20784,304.1958 C 427.96004,258.00419 390.83533,222.08297 395.31402,178.19649 399.44033,137.76307 341.5113,115.14687 304.97242,90.824139 276.86052,72.110971 231.61472,102.03957 188.286,89.253123 153.31562,78.933257 95.591538,145.86661 91.937187,195.51042 c -1.137885,15.45798 -14.444261,37.71364 -4.232209,52.61593 19.456682,28.39279 7.691015,42.68641 10.052394,56.31447 9.697088,55.96411 41.480408,98.78732 98.866088,104.10483 39.65433,3.67446 112.43258,19.96553 123.88401,-15.16424 13.73703,-42.14137 76.33603,-44.13136 91.70037,-89.18561 z m -18.19096,-6.02055 c -13.63735,39.99003 -69.20003,41.75614 -81.39298,79.1607 -10.16426,31.1811 -74.76183,16.7214 -109.95891,13.45995 -50.93537,-4.7198 -79.14634,-42.72972 -87.75345,-92.40331 -2.09596,-12.09623 8.34727,-24.78363 -8.92239,-49.98498 -9.064188,-13.22723 2.74655,-32.98085 3.75653,-46.70132 3.2436,-44.0637 54.47902,-103.473418 85.51864,-94.31354 38.45846,11.34921 78.61893,-15.215526 103.57097,1.39423 32.43181,21.58878 83.84935,41.66278 80.18685,77.55138 -3.97527,38.95351 28.97635,70.83734 14.99474,111.83689 z" />
          <path
             id="path3"
             style="fill:#5cd89a;fill-opacity:1;stroke:#37ce83;stroke-width:0;stroke-linecap:round;stroke-linejoin:bevel;stroke-opacity:0.756863;paint-order:fill markers stroke"
             d="m 173.59368,164.65775 c -0.70095,-9.5185 0.73193,-13.03716 8.295,-14.37239 5.29006,-0.93392 7.87329,-7.25405 10.88073,-5.36417 7.43229,4.67046 6.91112,18.87392 -1.16409,31.72431 -8.0752,12.85038 -20.64652,19.48152 -28.07881,14.81105 -4.57161,-2.87281 -3.11258,-10.46508 2.7835,-14.15988 4.0951,-2.56621 7.73311,-6.53583 7.28367,-12.63892 z"
             sodipodi:nodetypes="sssssss" />
          <path
             id="path4"
             style="fill:#5cd89a;fill-opacity:1;stroke:#37ce83;stroke-width:0;stroke-linecap:round;stroke-linejoin:bevel;stroke-opacity:0.756863;paint-order:fill markers stroke"
             d="m 259.84089,361.70692 c 1.86513,9.36026 0.87543,13.02831 -6.46629,15.28266 -5.13523,1.5768 -6.92237,8.16643 -10.13922,6.66038 -7.94982,-3.7219 -9.1777,-17.88178 -2.74253,-31.62697 6.43515,-13.74518 18.09649,-21.87065 26.04631,-18.14873 4.88994,2.28935 4.37478,10.00336 -1.02266,14.39459 -3.74878,3.04991 -6.8715,7.43644 -5.67561,13.43807 z"
             sodipodi:nodetypes="sssssss" />
          <path
             id="path6"
             style="fill:#5cd89a;stroke:#37ce83;stroke-width:0;stroke-linecap:round;stroke-linejoin:bevel;stroke-opacity:0.756863;paint-order:fill markers stroke"
             d="m 180.57198,309.61984 c -1.08364,8.17436 6.7966,19.24996 -5.04866,19.24996 -6.98851,0 -5.79818,7.65591 -12.23722,1.09694 -4.41456,-4.49678 4.81309,-14.21255 3.65473,-23.86018 -0.3062,-2.55026 16.2698,-16.39117 13.63115,3.51328 z"
             sodipodi:nodetypes="sssss" />
          <path
             id="path7"
             style="fill:#5cd89a;stroke:#37ce83;stroke-width:0;stroke-linecap:round;stroke-linejoin:bevel;stroke-opacity:0.756863;paint-order:fill markers stroke"
             d="m 313.29056,211.1991 c -7.93025,2.25956 -14.95409,13.89712 -19.66889,3.03062 -2.78166,-6.41106 -9.33118,-2.27178 -5.87712,-10.78945 2.36808,-5.83966 14.95395,-1.24168 23.34334,-6.1444 2.21766,-1.29598 21.51271,8.40122 2.20267,13.90323 z"
             sodipodi:nodetypes="sssss" />
          <path
             id="path8"
             style="fill:#5cd89a;stroke:#37ce83;stroke-width:0;stroke-linecap:round;stroke-linejoin:bevel;stroke-opacity:0.756863;paint-order:fill markers stroke"
             d="m 240.86238,239.32617 c -9.64228,2.89195 -18.18247,17.78655 -23.91512,3.87881 -3.38219,-8.20535 -11.34565,-2.9076 -7.14591,-13.80914 2.87931,-7.47402 18.18229,-1.58919 28.38283,-7.86405 2.69642,-1.65869 26.157,10.7525 2.6782,17.79438 z"
             sodipodi:nodetypes="sssss" />
          <path
             id="path9"
             style="fill:#5cd89a;stroke:#37ce83;stroke-width:0;stroke-linecap:round;stroke-linejoin:bevel;stroke-opacity:0.756863;paint-order:fill markers stroke"
             d="m 289.00484,154.20032 c 8.64522,11.09244 1.87102,13.49642 -0.38061,14.25196 -3.47593,1.16635 -14.35623,1.31695 -16.66105,-10.13472 -2.73571,-13.5925 -9.09124,-25.19916 -0.99619,-31.50828 4.76148,-3.711 7.94719,9.63798 14.3809,12.37093 4.5043,1.91336 0.0968,10.45222 3.65695,15.02011 z"
             sodipodi:nodetypes="ssssss" />
          <path
             id="path10"
             style="fill:#5cd89a;stroke:#37ce83;stroke-width:0;stroke-linecap:round;stroke-linejoin:bevel;stroke-opacity:0.756863;paint-order:fill markers stroke"
             d="m 333.6691,302.45025 c -7.17569,12.0951 -11.88458,6.66414 -13.40923,4.84312 -2.35365,-2.81119 -6.46179,-12.88724 3.36066,-19.20961 11.65871,-7.50432 20.14823,-17.65495 28.975,-12.41827 5.19188,3.0802 -6.07596,10.91472 -6.2744,17.90201 -0.13892,4.89187 -9.69707,3.90193 -12.65203,8.88275 z"
             sodipodi:nodetypes="ssssss" />
          <path
             id="path11"
             style="fill:#5cd89a;stroke:#37ce83;stroke-width:0;stroke-linecap:round;stroke-linejoin:bevel;stroke-opacity:0.756863;paint-order:fill markers stroke"
             d="m 162.86544,255.39907 c 0,7.50582 -3.85575,10.32877 -11.48715,10.32878 -7.63141,0 -14.54468,-3.06803 -11.1542,-9.60396 3.32961,-6.41859 6.18648,-13.59051 13.81789,-13.59051 7.6314,0 8.82346,5.35986 8.82346,12.86569 z"
             sodipodi:nodetypes="sssss" />
          <path
             id="path12"
             style="fill:#5cd89a;stroke:#37ce83;stroke-width:0;stroke-linecap:round;stroke-linejoin:bevel;stroke-opacity:0.756863;paint-order:fill markers stroke"
             d="m 346.65829,186.27282 c -6.62849,-3.52142 -7.31252,-8.2509 -3.73219,-14.9903 3.58034,-6.7394 9.53318,-11.40521 13.71447,-5.34465 4.10624,5.95176 9.09953,11.83947 5.51919,18.57888 -3.58033,6.73939 -8.87296,5.27749 -15.50147,1.75607 z"
             sodipodi:nodetypes="sssss" />
          <path
             id="path13"
             style="fill:#5cd89a;stroke:#37ce83;stroke-width:0;stroke-linecap:round;stroke-linejoin:bevel;stroke-opacity:0.756863;paint-order:fill markers stroke"
             d="m 265.47768,291.65635 c -6.62849,-3.52142 -7.31252,-8.2509 -3.73219,-14.9903 3.58034,-6.7394 9.53318,-11.40521 13.71447,-5.34465 4.10624,5.95176 9.09953,11.83947 5.51919,18.57888 -3.58033,6.73939 -8.87296,5.27749 -15.50147,1.75607 z"
             sodipodi:nodetypes="sssss" />
        </g>
        <text
           xml:space="preserve"
           style="font-weight:bold;font-size:68.3341px;line-height:0;font-family:'Bell MT';-inkscape-font-specification:'Bell MT Bold';letter-spacing:7.9375px;word-spacing:0px;writing-mode:vertical-lr;direction:ltr;fill:#333333;fill-opacity:1;stroke:#37ce83;stroke-width:0;stroke-linecap:round;stroke-linejoin:bevel;stroke-dasharray:none;stroke-opacity:0.756863;paint-order:fill markers stroke"
           x="-451.92169"
           y="56.887486"
           id="text14"
           transform="rotate(-89.489153)"><tspan
             sodipodi:role="line"
             id="tspan14"
             style="font-style:normal;font-variant:normal;font-weight:normal;font-stretch:normal;font-size:68.3341px;line-height:0;font-family:'Arial Rounded MT Bold';-inkscape-font-specification:'Arial Rounded MT Bold, Normal';font-variant-ligatures:normal;font-variant-caps:normal;font-variant-numeric:normal;font-variant-east-asian:normal;letter-spacing:7.9375px;direction:ltr;fill:#333333;fill-opacity:1;stroke-width:0"
             x="-451.92169"
             y="56.887486" /></text>
      </g>
    </g>
  </g>
</svg>
